<?xml version="1.0" encoding="UTF-8" standalone="no"?>
<svg
   width="0.4022975in"
   height="0.38934323in"
   viewBox="0 0 2413.7813 2336.0614"
   version="1.1"
   xmlns="http://www.w3.org/2000/svg"
   xmlns:svg="http://www.w3.org/2000/svg">
      <path
         clip-path="none"
         fill="#666"
         style="opacity:1;stroke-width:63.5038"
         d="M 1172.9718,0 C 861.88442,0.00697425 563.54016,123.06232 343.56672,342.09717 123.59327,561.13203 0.0083168,858.2056 -0.00278947,1167.9697 -0.02420469,1477.755 123.54639,1774.8599 343.52336,1993.9212 c 219.97697,219.0612 518.33982,342.1333 829.44844,342.1403 336.9858,-12.4236 652.302,-168.6585 865.4792,-428.8334 -10.975,2.4515 -22.005,4.6493 -33.0811,6.5918 -189.4169,-2.0067 -370.6818,-77.4814 -505.6963,-210.561 -135.0145,-133.0796 -209.3582,-261.1543 -214.397,-450.8165 l -3.9063,0.2442 h -255.6154 l -3.9063,-0.018 c -19.3508,157.9357 -147.57437,241.7448 -306.64085,245.7453 -177.27097,-0.043 -320.94793,-143.7742 -320.92311,-321.0452 -0.0248,-177.271 143.65216,-321.00255 320.92311,-321.04516 33.7813,0.43341 34.10377,0.51688 35.15627,0.61034 l -0.24414,0.12208 118.53038,-290.52758 c -38.48012,-34.32781 -60.98229,-83.08989 -62.13384,-134.64366 -0.0194,-102.7525 83.2828,-186.05472 186.0353,-186.03531 102.75248,-0.0194 186.05468,83.28282 186.03528,186.03531 -1.1216,98.78703 -79.2768,179.4617 -177.9786,183.71596 l 0.4883,0.24415 -118.28627,290.64964 c 79.65939,52.20034 128.11997,107.78153 139.03817,202.39273 l 3.9063,0.1221 h 255.6154 l 3.9063,0.1221 c 5.0388,-189.66223 79.3825,-317.98108 214.397,-451.06065 135.0145,-133.07957 316.2794,-208.55434 505.6963,-210.56102 30.1064,-0.6663 29.9103,-0.77497 48.2969,-1.37204 C 1838.7682,148.13446 1541.3174,8.2995012 1172.9718,0 Z" />
      <path
         style="display:inline;opacity:1;stroke-width:68.407"
         fill="#666"
         d="m 2413.7842,1176.095 a 405.00037,405.00037 0 0 1 -405.0004,405.0003 405.00037,405.00037 0 0 1 -405.0004,-405.0003 405.00037,405.00037 0 0 1 405.0004,-405.0004 405.00037,405.00037 0 0 1 405.0004,405.0004 z" />
</svg>
