<?xml version="1.0" encoding="UTF-8" standalone="no"?>
<!-- Uploaded to: SVG Repo, www.svgrepo.com, Generator: SVG Repo Mixer Tools -->

<svg
   width="800px"
   height="800px"
   viewBox="0 0 24 24"
   fill="none"
   version="1.1"
   id="svg3"
   sodipodi:docname="logout.svg"
   inkscape:version="1.3.2 (091e20ef0f, 2023-11-25)"
   xmlns:inkscape="http://www.inkscape.org/namespaces/inkscape"
   xmlns:sodipodi="http://sodipodi.sourceforge.net/DTD/sodipodi-0.dtd"
   xmlns="http://www.w3.org/2000/svg"
   xmlns:svg="http://www.w3.org/2000/svg">
  <defs
     id="defs3" />
  <sodipodi:namedview
     id="namedview3"
     pagecolor="#ffffff"
     bordercolor="#000000"
     borderopacity="0.25"
     inkscape:showpageshadow="2"
     inkscape:pageopacity="0.0"
     inkscape:pagecheckerboard="0"
     inkscape:deskcolor="#d1d1d1"
     inkscape:zoom="1.09375"
     inkscape:cx="400"
     inkscape:cy="400"
     inkscape:window-width="1896"
     inkscape:window-height="1056"
     inkscape:window-x="0"
     inkscape:window-y="0"
     inkscape:window-maximized="1"
     inkscape:current-layer="svg3" />
  <path
     style="color:#000000;fill:#323232;stroke-linecap:round;stroke-linejoin:round;-inkscape-stroke:none"
     d="M 13,10.560547 A 1.4400001,1.4400001 0 0 0 11.560547,12 1.4400001,1.4400001 0 0 0 13,13.439453 h 8 A 1.4400001,1.4400001 0 0 0 22.439453,12 1.4400001,1.4400001 0 0 0 21,10.560547 Z"
     id="path1" />
  <path
     style="color:#000000;fill:#323232;stroke-linecap:round;stroke-linejoin:round;-inkscape-stroke:none"
     d="m 18,7.5605469 a 1.4400001,1.4400001 0 0 0 -1.017578,0.421875 1.4400001,1.4400001 0 0 0 0,2.0351561 L 18.962891,12 16.982422,13.982422 a 1.4400001,1.4400001 0 0 0 0,2.035156 1.4400001,1.4400001 0 0 0 2.035156,0 l 2.914063,-2.912109 c 0.599542,-0.599543 0.599542,-1.611395 0,-2.210938 L 19.017578,7.9824219 A 1.4400001,1.4400001 0 0 0 18,7.5605469 Z"
     id="path2" />
  <path
     style="color:#000000;fill:#323232;stroke-linecap:round;stroke-linejoin:round;-inkscape-stroke:none"
     d="M 5,1.5605469 C 3.1171989,1.5605469 1.5605469,3.1171989 1.5605469,5 v 14 c 0,1.88281 1.556678,3.439453 3.4394531,3.439453 h 9.5 c 1.606689,0 2.939453,-1.332764 2.939453,-2.939453 V 19 A 1.4400001,1.4400001 0 0 0 16,17.560547 1.4400001,1.4400001 0 0 0 14.560547,19 v 0.5 c 0,0.05011 -0.01044,0.06055 -0.06055,0.06055 H 5 C 4.6736373,19.560547 4.4394531,19.326388 4.4394531,19 V 5 C 4.4394531,4.6736633 4.6736633,4.4394531 5,4.4394531 h 9.5 c 0.05014,0 0.06055,0.010379 0.06055,0.060547 V 5 A 1.4400001,1.4400001 0 0 0 16,6.4394531 1.4400001,1.4400001 0 0 0 17.439453,5 V 4.5 c 0,-1.6066909 -1.332799,-2.9394531 -2.939453,-2.9394531 z"
     id="path3" />
</svg>
