<?xml version="1.0" encoding="UTF-8" standalone="no"?>
<svg
   width="800px"
   height="800px"
   viewBox="0 0 100 100"
   version="1.1"
   id="svg2"
   sodipodi:docname="poweroff.svg"
   inkscape:version="1.3.2 (091e20ef0f, 2023-11-25)"
   xmlns:inkscape="http://www.inkscape.org/namespaces/inkscape"
   xmlns:sodipodi="http://sodipodi.sourceforge.net/DTD/sodipodi-0.dtd"
   xmlns="http://www.w3.org/2000/svg"
   xmlns:svg="http://www.w3.org/2000/svg">
  <defs
     id="defs2" />
  <sodipodi:namedview
     id="namedview2"
     pagecolor="#ffffff"
     bordercolor="#000000"
     borderopacity="0.25"
     inkscape:showpageshadow="2"
     inkscape:pageopacity="0.0"
     inkscape:pagecheckerboard="0"
     inkscape:deskcolor="#d1d1d1"
     inkscape:zoom="1.09375"
     inkscape:cx="400"
     inkscape:cy="400"
     inkscape:window-width="1896"
     inkscape:window-height="1056"
     inkscape:window-x="0"
     inkscape:window-y="0"
     inkscape:window-maximized="1"
     inkscape:current-layer="svg2" />
  <g
     style="fill:none;stroke:#222222;stroke-width:12px;stroke-linecap:round;stroke-linejoin:round"
     id="g2">
    <path
       style="color:#000000;fill:#222222;stroke:none;stroke-linecap:butt;stroke-linejoin:miter;-inkscape-stroke:none"
       d="m 50,4 a 6,6 0 0 0 -6,6 v 35 a 6,6 0 0 0 6,6 6,6 0 0 0 6,-6 V 10 A 6,6 0 0 0 50,4 Z"
       id="path1" />
    <path
       style="color:#000000;fill:#222222;stroke:none;stroke-linecap:butt;stroke-linejoin:miter;-inkscape-stroke:none"
       d="m 26.105469,14 a 6,6 0 0 0 -4.273438,1.683594 C 5.7825672,31.179628 2.5675469,51.533621 8.9160156,67.693359 15.264484,83.853098 31.10002,96 51,96 66.642842,96 78.218036,89.227714 85.214844,80.335937 92.211651,71.444161 95,60.833324 95,52 95,34.866684 85.940451,22.333444 77.904297,15.445313 a 6,6 0 0 0 -8.458985,0.65039 6,6 0 0 0 0.650391,8.458984 C 76.059535,29.666544 83,39.133346 83,52 83,58.16666 80.788337,66.555854 75.785156,72.914062 70.781976,79.272271 63.35713,84 51,84 35.900015,84 24.735505,75.146874 20.083984,63.306641 15.432464,51.466407 17.217462,36.820344 30.167969,24.316406 A 6,6 0 0 0 30.316406,15.832031 6,6 0 0 0 26.105469,14 Z"
       id="path2" />
  </g>
</svg>
