<?xml version="1.0" encoding="UTF-8" standalone="no"?>
<!-- Uploaded to: SVG Repo, www.svgrepo.com, Generator: SVG Repo Mixer Tools -->

<svg
   width="800px"
   height="800px"
   viewBox="0 0 16 16"
   version="1.1"
   id="svg1"
   sodipodi:docname="reboot.svg"
   inkscape:version="1.3.2 (091e20ef0f, 2023-11-25)"
   xmlns:inkscape="http://www.inkscape.org/namespaces/inkscape"
   xmlns:sodipodi="http://sodipodi.sourceforge.net/DTD/sodipodi-0.dtd"
   xmlns="http://www.w3.org/2000/svg"
   xmlns:svg="http://www.w3.org/2000/svg">
  <defs
     id="defs1" />
  <sodipodi:namedview
     id="namedview1"
     pagecolor="#ffffff"
     bordercolor="#000000"
     borderopacity="0.25"
     inkscape:showpageshadow="2"
     inkscape:pageopacity="0.0"
     inkscape:pagecheckerboard="0"
     inkscape:deskcolor="#d1d1d1"
     inkscape:zoom="1.09375"
     inkscape:cx="400"
     inkscape:cy="400"
     inkscape:window-width="1896"
     inkscape:window-height="1056"
     inkscape:window-x="0"
     inkscape:window-y="0"
     inkscape:window-maximized="1"
     inkscape:current-layer="svg1" />
  <path
     d="M 1,1 3.050781,3.050781 C 0.933594,5.167969 0.398438,8.40625 1.71875,11.089844 c 1.324219,2.683594 4.214844,4.238281 7.179688,3.851562 2.96875,-0.386718 5.367187,-2.625 5.960937,-5.554687 0.59375,-2.933594 -0.75,-5.929688 -3.335937,-7.433594 -0.476563,-0.28125 -1.089844,-0.117187 -1.367188,0.359375 -0.277344,0.476562 -0.117188,1.089844 0.359375,1.367188 1.851563,1.078124 2.808594,3.207031 2.382813,5.3125 -0.421876,2.101562 -2.128907,3.691406 -4.253907,3.96875 C 6.515625,13.234375 4.460938,12.132812 3.515625,10.207031 2.570312,8.28125 2.949219,5.980469 4.464844,4.464844 L 6,6 V 1.996094 C 6,1.476562 5.550781,1 5,1 Z"
     fill="#2e3436"
     id="path1"
     sodipodi:nodetypes="ccccccscccsccssc" />
</svg>
