<?xml version="1.0" encoding="UTF-8" standalone="no"?>
<!-- Uploaded to: SVG Repo, www.svgrepo.com, Generator: SVG Repo Mixer Tools -->

<svg
   width="800px"
   height="800px"
   viewBox="-0.5 0 25 25"
   fill="none"
   version="1.1"
   id="svg6"
   sodipodi:docname="settings.svg"
   inkscape:version="1.3.2 (091e20ef0f, 2023-11-25)"
   xmlns:inkscape="http://www.inkscape.org/namespaces/inkscape"
   xmlns:sodipodi="http://sodipodi.sourceforge.net/DTD/sodipodi-0.dtd"
   xmlns="http://www.w3.org/2000/svg"
   xmlns:svg="http://www.w3.org/2000/svg">
  <defs
     id="defs6" />
  <sodipodi:namedview
     id="namedview6"
     pagecolor="#ffffff"
     bordercolor="#000000"
     borderopacity="0.25"
     inkscape:showpageshadow="2"
     inkscape:pageopacity="0.0"
     inkscape:pagecheckerboard="0"
     inkscape:deskcolor="#d1d1d1"
     showgrid="false"
     inkscape:zoom="1.06375"
     inkscape:cx="400"
     inkscape:cy="400"
     inkscape:window-width="1896"
     inkscape:window-height="1056"
     inkscape:window-x="0"
     inkscape:window-y="0"
     inkscape:window-maximized="1"
     inkscape:current-layer="svg6" />
  <path
     style="color:#000000;fill:#000000;stroke-linecap:round;stroke-linejoin:round;-inkscape-stroke:none"
     d="m 12,6.6953125 a 1.125,1.125 0 0 0 -1.125,1.125 1.125,1.125 0 0 0 1.125,1.125 h 10 a 1.125,1.125 0 0 0 1.125,-1.125 1.125,1.125 0 0 0 -1.125,-1.125 z"
     id="path1" />
  <path
     style="color:#000000;fill:#000000;stroke-linecap:round;stroke-linejoin:round;-inkscape-stroke:none"
     d="m 2,6.6953125 a 1.125,1.125 0 0 0 -1.125,1.125 1.125,1.125 0 0 0 1.125,1.125 h 2 a 1.125,1.125 0 0 0 1.125,-1.125 1.125,1.125 0 0 0 -1.125,-1.125 z"
     id="path2" />
  <path
     style="color:#000000;fill:#000000;stroke-linecap:round;stroke-linejoin:round;-inkscape-stroke:none"
     d="m 20,15.695313 a 1.125,1.125 0 0 0 -1.125,1.124999 1.125,1.125 0 0 0 1.125,1.125 h 2 a 1.125,1.125 0 0 0 1.125,-1.125 A 1.125,1.125 0 0 0 22,15.695313 Z"
     id="path3" />
  <path
     style="color:#000000;fill:#000000;stroke-linecap:round;stroke-linejoin:round;-inkscape-stroke:none"
     d="m 2,15.695313 a 1.125,1.125 0 0 0 -1.125,1.124999 1.125,1.125 0 0 0 1.125,1.125 h 10 a 1.125,1.125 0 0 0 1.125,-1.125 A 1.125,1.125 0 0 0 12,15.695313 Z"
     id="path4" />
  <path
     style="color:#000000;fill:#000000;stroke-linecap:round;stroke-linejoin:round;-inkscape-stroke:none"
     d="m 8,2.6953125 c -2.8171317,0 -5.125,2.3078683 -5.125,5.125 0,2.8170955 2.3078547,5.1250005 5.125,5.1250005 2.817116,0 5.125,-2.307891 5.125,-5.1250005 0,-2.8171453 -2.307897,-5.125 -5.125,-5.125 z m 0,2.25 c 1.6010929,0 2.875,1.2738697 2.875,2.875 0,1.6010665 -1.2739207,2.8750005 -2.875,2.8750005 -1.6011303,0 -2.875,-1.2739204 -2.875,-2.8750005 0,-1.6011439 1.2738561,-2.875 2.875,-2.875 z"
     id="path5" />
  <path
     style="color:#000000;fill:#000000;stroke-linecap:round;stroke-linejoin:round;-inkscape-stroke:none"
     d="m 16,11.695313 c -2.817116,0 -5.125,2.307883 -5.125,5.124999 0,2.817117 2.307884,5.125 5.125,5.125 2.817116,0 5.125,-2.307883 5.125,-5.125 0,-2.817116 -2.307884,-5.124999 -5.125,-5.124999 z m 0,2.25 c 1.601079,0 2.875,1.27392 2.875,2.874999 0,1.60108 -1.273921,2.875 -2.875,2.875 -1.601079,0 -2.875,-1.27392 -2.875,-2.875 0,-1.601079 1.273921,-2.874999 2.875,-2.874999 z"
     id="path6" />
</svg>
