<?xml version="1.0" encoding="UTF-8" standalone="no"?>
<!-- Uploaded to: SVG Repo, www.svgrepo.com, Generator: SVG Repo Mixer Tools -->

<svg
   fill="#000000"
   height="800px"
   width="800px"
   version="1.1"
   viewBox="0 0 512 512"
   enable-background="new 0 0 512 512"
   id="svg1"
   sodipodi:docname="suspend.svg"
   inkscape:version="1.3.2 (091e20ef0f, 2023-11-25)"
   xmlns:inkscape="http://www.inkscape.org/namespaces/inkscape"
   xmlns:sodipodi="http://sodipodi.sourceforge.net/DTD/sodipodi-0.dtd"
   xmlns="http://www.w3.org/2000/svg"
   xmlns:svg="http://www.w3.org/2000/svg">
  <defs
     id="defs1" />
  <sodipodi:namedview
     id="namedview1"
     pagecolor="#ffffff"
     bordercolor="#000000"
     borderopacity="0.25"
     inkscape:showpageshadow="2"
     inkscape:pageopacity="0.0"
     inkscape:pagecheckerboard="0"
     inkscape:deskcolor="#d1d1d1"
     inkscape:zoom="1.09375"
     inkscape:cx="400"
     inkscape:cy="400"
     inkscape:window-width="1896"
     inkscape:window-height="1056"
     inkscape:window-x="0"
     inkscape:window-y="0"
     inkscape:window-maximized="1"
     inkscape:current-layer="svg1" />
  <g
     id="g1"
     transform="matrix(0.90081431,0,0,0.90081431,25.40216,25.372245)">
    <path
       id="path1"
       style="stroke-width:0.916477"
       d="m 175.73633,19.478516 c -6.55449,-0.02229 -12.74382,2.585795 -18.45788,5.565602 -22.91542,11.334994 -43.72469,26.672198 -62.127024,44.364238 -25.684854,24.879893 -46.244463,55.185894 -59.050407,88.619174 -12.06169,31.38113 -17.43769,65.20043 -16.596633,98.77072 0.747632,28.05182 6.324408,56.02661 16.951113,82.024 10.973155,27.03977 27.134369,51.89726 47.006061,73.23901 22.79675,24.61332 50.27312,44.83464 80.42464,59.51904 17.4807,8.44541 35.95016,15.08604 55.11292,18.42923 8.39715,1.42863 16.91607,1.91202 25.41901,2.18887 25.72523,1.05765 51.67351,-0.0608 76.93473,-5.29996 28.7387,-5.86237 56.53962,-16.8424 81.00701,-33.09636 22.03331,-14.53962 41.33993,-33.06268 57.31037,-54.05176 11.90726,-15.59091 22.17956,-32.42342 30.70547,-50.0881 4.52727,-10.81936 1.82484,-24.09233 -6.25232,-32.52293 -7.83553,-8.35729 -20.56387,-11.94525 -31.52451,-8.37818 -5.07053,1.63193 -9.74661,4.25821 -14.7748,6.0054 -8.46151,3.26536 -17.18184,5.9003 -25.96199,7.8681 -7.92804,1.77506 -15.8948,3.01717 -23.97324,3.72535 -5.89653,0.5218 -12.05604,0.77883 -17.9634,0.71081 -20.51493,-0.185 -41.08057,-3.82501 -60.34733,-10.72116 -15.59491,-5.57627 -30.43215,-13.2672 -43.96484,-22.81641 -0.90883,-0.66237 -2.00557,-1.4228 -2.91765,-2.10262 -8.43075,-6.1848 -16.40535,-13.19307 -23.6136,-20.65714 -8.78537,-9.11599 -16.64647,-19.11953 -23.43359,-29.80664 -0.58655,-0.96082 -1.30613,-2.07933 -1.89223,-3.05874 -6.61811,-10.88055 -12.12204,-22.53411 -16.35387,-34.48814 -5.24872,-14.86262 -8.61448,-30.39279 -9.91406,-46.10351 -0.32592,-3.94905 -0.53436,-8.07512 -0.61328,-12.10157 -0.0958,-5.9835 0.0716,-12.08659 0.55812,-18.14085 0.12762,-1.41547 0.25634,-2.99969 0.41242,-4.41401 1.25441,-12.10434 3.73813,-24.154041 7.27555,-35.743964 1.74355,-5.720965 3.84939,-11.446407 6.12305,-16.898438 1.14194,-2.838479 2.50148,-5.582498 3.67602,-8.405201 4.20646,-10.59149 1.89429,-23.439745 -5.77139,-31.878231 -5.88641,-6.533265 -14.61109,-10.387134 -23.41244,-10.25563 z M 125.40234,127.44141 c -2.06807,28.99221 0.44282,58.43494 8.65473,86.36978 8.52255,29.12403 23.05041,56.44697 42.27966,79.91194 25.7118,31.5748 59.10783,56.57937 95.98047,73.68331 16.62321,7.6724 34.05372,13.74211 52.04902,17.22816 8.20231,1.56034 16.531,2.31977 24.85988,2.79383 12.23721,0.79982 24.51679,1.14711 36.7739,0.6243 -19.05048,16.35082 -41.5114,28.71579 -65.5293,36.0293 -1.92959,0.57747 -4.06137,1.19201 -6.03598,1.72071 -5.0559,1.36648 -10.19301,2.49955 -15.29609,3.40844 -4.79263,0.8447 -9.65664,1.51867 -14.43852,1.9788 -5.01409,0.49644 -10.17249,0.77206 -15.13175,0.85494 -4.05433,0.0485 -8.14862,-0.0124 -12.25094,-0.2215 -14.26787,-0.72101 -28.64533,-3.07037 -42.43948,-7.08236 -8.82444,-2.54739 -17.47379,-5.78499 -25.77365,-9.61132 -14.52889,-6.69525 -28.13487,-15.2824 -40.45187,-25.53211 -7.71333,-6.39219 -15.01778,-13.56449 -21.58871,-21.12267 -10.41079,-11.98871 -19.32768,-25.32096 -26.37531,-39.5901 -7.11266,-14.37852 -12.399682,-29.68182 -15.576395,-45.45563 -2.044089,-10.02963 -3.22053,-20.35801 -3.560256,-30.64727 -0.09161,-2.45822 -0.09639,-4.89826 -0.09862,-7.26243 0.07925,-8.25367 0.661112,-16.49915 1.816545,-24.61144 2.524693,-18.18161 7.777808,-36.12859 15.593323,-52.80171 3.871427,-8.29965 8.433017,-16.42803 13.439737,-23.98529 4.03897,-6.0923 8.42246,-11.95955 13.16407,-17.52343 -0.0215,0.28125 -0.043,0.5625 -0.0645,0.84375 z" />
  </g>
</svg>
